<?xml version="1.0" encoding="iso-8859-1"?>
<!-- Generator: Adobe Illustrator 19.0.0, SVG Export Plug-In . SVG Version: 6.00 Build 0)  -->
<svg version="1.1" id="Capa_1" xmlns="http://www.w3.org/2000/svg" xmlns:xlink="http://www.w3.org/1999/xlink" x="0px" y="0px"
	 viewBox="0 0 59 59" style="enable-background:new 0 0 59 59;" xml:space="preserve">
<g>
	<path d="M17.764,48h8.828l9.726-9.726c0.001-0.001,0.002-0.001,0.003-0.002s0.001-0.002,0.002-0.003l11.644-11.644
		c1.377-1.376,1.377-3.616,0-4.992L35.987,9.655c-1.376-1.376-3.615-1.378-4.991,0L7.703,32.947c-1.375,1.377-1.375,3.615,0,4.992
		L17.764,48z M32.41,11.069c0.598-0.596,1.569-0.595,2.163,0l11.979,11.979c0.597,0.597,0.597,1.567,0,2.164L35.613,36.151
		L21.47,22.009L32.41,11.069z M9.117,34.361l10.939-10.939l14.142,14.142L25.764,46h-7.172l-9.475-9.475
		C8.521,35.929,8.521,34.958,9.117,34.361z"/>
	<path d="M32,47c0,0.553,0.447,1,1,1h17c0.553,0,1-0.447,1-1s-0.447-1-1-1H33C32.447,46,32,46.447,32,47z"/>
</g>
<g>
</g>
<g>
</g>
<g>
</g>
<g>
</g>
<g>
</g>
<g>
</g>
<g>
</g>
<g>
</g>
<g>
</g>
<g>
</g>
<g>
</g>
<g>
</g>
<g>
</g>
<g>
</g>
<g>
</g>
</svg>
